<svg width="180" height="36" viewBox="0 0 180 36" fill="none" xmlns="http://www.w3.org/2000/svg">
<path d="M22.148 23.552C19.628 25.448 16.64 26.396 13.184 26.396C9.944 26.396 7.136 25.352 4.76 23.264C3.608 22.256 2.684 20.936 1.988 19.304C1.292 17.648 0.944 15.776 0.944 13.688C0.944 11.6 1.304 9.68 2.024 7.928C2.768 6.176 3.752 4.748 4.976 3.644C7.496 1.364 10.448 0.223999 13.832 0.223999C16.376 0.223999 18.596 0.739999 20.492 1.772V7.64H17.54L16.892 3.896C16.412 3.368 15.416 3.104 13.904 3.104C11.048 3.104 8.804 4.1 7.172 6.092C5.54 8.084 4.724 10.592 4.724 13.616C4.724 16.616 5.564 19.016 7.244 20.816C8.948 22.592 11.096 23.48 13.688 23.48C14.912 23.48 16.124 23.3 17.324 22.94C18.524 22.58 19.412 22.22 19.988 21.86L20.852 21.32L22.148 23.552ZM34.026 26H24.558V24.452L27.582 23.264V10.412H24.558V8.252C25.494 7.796 26.55 7.568 27.726 7.568C28.902 7.568 29.718 7.82 30.174 8.324C30.63 8.828 30.882 9.572 30.93 10.556C31.17 9.836 31.662 9.188 32.406 8.612C33.294 7.916 34.47 7.568 35.934 7.568C36.582 7.568 37.194 7.652 37.77 7.82C38.37 7.988 38.802 8.156 39.066 8.324L39.498 8.576V12.824H37.338L36.87 10.664C36.726 10.52 36.33 10.448 35.682 10.448C35.034 10.448 34.41 10.544 33.81 10.736C33.21 10.904 32.742 11.12 32.406 11.384C31.734 11.96 31.254 12.548 30.966 13.148V23.264L34.026 24.452V26ZM40.2023 8.036H49.5623V9.62L47.1143 10.484L51.7943 22.328L56.1143 10.484L53.6663 9.62V8.036H62.6663V9.62L59.7863 10.556L51.7223 29.816C50.9543 31.64 49.9943 33.092 48.8423 34.172C47.7143 35.252 46.2023 35.792 44.3063 35.792C43.4423 35.792 42.6743 35.66 42.0023 35.396C41.3543 35.132 40.9223 34.88 40.7063 34.64L40.3823 34.244L41.3543 32.264C42.0743 32.648 43.0583 32.84 44.3063 32.84C46.4663 32.84 48.1223 31.304 49.2743 28.232L50.1023 26.036L43.0823 10.556L40.2023 9.62V8.036ZM73.3198 35.756H63.8518V34.208L66.9118 33.02V10.268H63.8878V8.288C64.8238 7.832 65.8438 7.604 66.9478 7.604C68.0758 7.604 68.8798 7.808 69.3598 8.216C69.8398 8.624 70.1278 9.224 70.2238 10.016C71.3998 8.384 73.1518 7.568 75.4798 7.568C77.3758 7.568 79.1278 8.216 80.7358 9.512C81.5518 10.184 82.1998 11.144 82.6797 12.392C83.1838 13.616 83.4358 15.044 83.4358 16.676C83.4358 18.308 83.1598 19.772 82.6078 21.068C82.0558 22.34 81.3118 23.348 80.3758 24.092C78.4798 25.604 76.2718 26.36 73.7518 26.36C72.7438 26.36 71.5918 26.192 70.2958 25.856V33.02L73.3198 34.208V35.756ZM73.7518 23.516C75.6958 23.516 77.2078 22.94 78.2878 21.788C79.3918 20.636 79.9438 19.028 79.9438 16.964C79.9438 14.9 79.4158 13.292 78.3598 12.14C77.3038 10.964 76.1758 10.376 74.9758 10.376C72.8878 10.376 71.3278 11.036 70.2958 12.356V22.868C71.6398 23.3 72.7918 23.516 73.7518 23.516ZM91.8648 18.116C91.8648 20.18 92.1768 21.584 92.8008 22.328C93.4248 23.072 94.3728 23.444 95.6448 23.444C96.9168 23.444 97.9608 23.252 98.7768 22.868L99.4968 24.668C99.4008 24.788 99.2568 24.944 99.0648 25.136C98.8968 25.328 98.4528 25.592 97.7328 25.928C97.0128 26.24 96.2208 26.396 95.3568 26.396C93.1728 26.396 91.4808 25.784 90.2808 24.56C89.0808 23.312 88.4808 21.5 88.4808 19.124V10.844H86.5728V8.72L90.0288 5.264H91.8648V8H97.9128V10.844H91.8648V18.116ZM117.36 23.804C115.608 25.532 113.4 26.396 110.736 26.396C108.072 26.396 105.864 25.532 104.112 23.804C102.36 22.052 101.484 19.784 101.484 17C101.484 14.216 102.36 11.948 104.112 10.196C105.864 8.444 108.072 7.568 110.736 7.568C113.4 7.568 115.608 8.444 117.36 10.196C119.112 11.948 119.988 14.216 119.988 17C119.988 19.784 119.112 22.052 117.36 23.804ZM106.596 21.824C107.676 22.976 109.056 23.552 110.736 23.552C112.416 23.552 113.796 22.976 114.876 21.824C115.956 20.648 116.496 19.076 116.496 17.108C116.496 15.14 115.944 13.532 114.84 12.284C113.76 11.036 112.392 10.412 110.736 10.412C109.08 10.412 107.7 11.036 106.596 12.284C105.516 13.532 104.976 15.14 104.976 17.108C104.976 19.076 105.516 20.648 106.596 21.824Z" fill="#FA504D"/>
<path d="M148.672 26H138.88V24.416L141.832 23.228L139.276 16.856H129.916L127.36 23.228L130.24 24.416V26H120.808V24.416L123.76 23.228L132.616 0.583999H136.324L145.54 23.228L148.672 24.416V26ZM138.34 14.408L134.524 4.292L130.852 14.408H138.34ZM158.936 26H149.468V24.452L152.492 23.264V10.412H149.468V8.252C150.404 7.796 151.46 7.568 152.636 7.568C153.812 7.568 154.628 7.82 155.084 8.324C155.54 8.828 155.792 9.572 155.84 10.556C156.08 9.836 156.572 9.188 157.316 8.612C158.204 7.916 159.38 7.568 160.844 7.568C161.492 7.568 162.104 7.652 162.68 7.82C163.28 7.988 163.712 8.156 163.976 8.324L164.408 8.576V12.824H162.248L161.78 10.664C161.636 10.52 161.24 10.448 160.592 10.448C159.944 10.448 159.32 10.544 158.72 10.736C158.12 10.904 157.652 11.12 157.316 11.384C156.644 11.96 156.164 12.548 155.876 13.148V23.264L158.936 24.452V26ZM171.88 18.116C171.88 20.18 172.192 21.584 172.816 22.328C173.44 23.072 174.388 23.444 175.66 23.444C176.932 23.444 177.976 23.252 178.792 22.868L179.512 24.668C179.416 24.788 179.272 24.944 179.08 25.136C178.912 25.328 178.468 25.592 177.748 25.928C177.028 26.24 176.236 26.396 175.372 26.396C173.188 26.396 171.496 25.784 170.296 24.56C169.096 23.312 168.496 21.5 168.496 19.124V10.844H166.588V8.72L170.044 5.264H171.88V8H177.928V10.844H171.88V18.116Z" fill="#2E2F38"/>
</svg>
